<svg width="165" height="38" viewBox="0 0 165 38" fill="none" xmlns="http://www.w3.org/2000/svg">
<path d="M15.28 13.8879C15.28 12.8959 14.992 12.1759 14.416 11.7279C13.872 11.2479 13.12 11.0079 12.16 11.0079C11.52 11.0079 10.88 11.0879 10.24 11.2479C9.632 11.4079 9.104 11.6479 8.656 11.9679V28.6239C8.336 28.7199 7.824 28.8159 7.12 28.9119C6.448 29.0079 5.744 29.0559 5.008 29.0559C4.304 29.0559 3.664 29.0079 3.088 28.9119C2.544 28.8159 2.08 28.6239 1.696 28.3359C1.312 28.0479 1.008 27.6639 0.784 27.1839C0.592 26.6719 0.496 26.0159 0.496 25.2159V10.8159C0.496 9.95187 0.672 9.24787 1.024 8.70387C1.408 8.15987 1.92 7.66387 2.56 7.21587C3.648 6.44787 5.008 5.82387 6.64 5.34387C8.304 4.86387 10.144 4.62387 12.16 4.62387C15.776 4.62387 18.56 5.42387 20.512 7.02387C22.464 8.59187 23.44 10.7839 23.44 13.5999V28.6239C23.12 28.7199 22.608 28.8159 21.904 28.9119C21.232 29.0079 20.528 29.0559 19.792 29.0559C19.088 29.0559 18.448 29.0079 17.872 28.9119C17.328 28.8159 16.864 28.6239 16.48 28.3359C16.096 28.0479 15.792 27.6639 15.568 27.1839C15.376 26.6719 15.28 26.0159 15.28 25.2159V13.8879ZM36.6404 20.6559C36.6404 21.4879 36.8964 22.0799 37.4084 22.4319C37.9524 22.7839 38.7044 22.9599 39.6644 22.9599C40.1444 22.9599 40.6404 22.9279 41.1524 22.8639C41.6644 22.7679 42.1124 22.6559 42.4964 22.5279C42.7844 22.8799 43.0244 23.2799 43.2164 23.7279C43.4404 24.1439 43.5524 24.6559 43.5524 25.2639C43.5524 26.4799 43.0884 27.4719 42.1604 28.2399C41.2644 29.0079 39.6644 29.3919 37.3604 29.3919C34.5444 29.3919 32.3684 28.7519 30.8324 27.4719C29.3284 26.1919 28.5764 24.1119 28.5764 21.2319V0.687875C28.9284 0.591874 29.4244 0.495873 30.0644 0.399873C30.7364 0.271873 31.4404 0.207872 32.1764 0.207872C33.5844 0.207872 34.6724 0.463873 35.4404 0.975874C36.2404 1.45587 36.6404 2.49587 36.6404 4.09587V7.16787H42.9284C43.1204 7.51987 43.2964 7.96787 43.4564 8.51187C43.6484 9.02387 43.7444 9.59987 43.7444 10.2399C43.7444 11.3599 43.4884 12.1759 42.9764 12.6879C42.4964 13.1679 41.8404 13.4079 41.0084 13.4079H36.6404V20.6559ZM57.6831 23.4879C58.2271 23.4879 58.8191 23.4399 59.4591 23.3439C60.1311 23.2159 60.6271 23.0559 60.9471 22.8639V19.0239L57.4911 19.3119C56.5951 19.3759 55.8591 19.5679 55.2831 19.8879C54.7071 20.2079 54.4191 20.6879 54.4191 21.3279C54.4191 21.9679 54.6591 22.4959 55.1391 22.9119C55.6511 23.2959 56.4991 23.4879 57.6831 23.4879ZM57.2991 4.62387C59.0271 4.62387 60.5951 4.79987 62.0031 5.15187C63.4431 5.50387 64.6591 6.04787 65.6511 6.78387C66.6751 7.48787 67.4591 8.39987 68.0031 9.51987C68.5471 10.6079 68.8191 11.9039 68.8191 13.4079V24.1599C68.8191 24.9919 68.5791 25.6799 68.0991 26.2239C67.6511 26.7359 67.1071 27.1839 66.4671 27.5679C64.3871 28.8159 61.4591 29.4399 57.6831 29.4399C55.9871 29.4399 54.4511 29.2799 53.0751 28.9599C51.7311 28.6399 50.5631 28.1599 49.5711 27.5199C48.6111 26.8799 47.8591 26.0639 47.3151 25.0719C46.8031 24.0799 46.5471 22.9279 46.5471 21.6159C46.5471 19.4079 47.2031 17.7119 48.5151 16.5279C49.8271 15.3439 51.8591 14.6079 54.6111 14.3199L60.8991 13.6479V13.3119C60.8991 12.3839 60.4831 11.7279 59.6511 11.3439C58.8511 10.9279 57.6831 10.7199 56.1471 10.7199C54.9311 10.7199 53.7471 10.8479 52.5951 11.1039C51.4431 11.3599 50.4031 11.6799 49.4751 12.0639C49.0591 11.7759 48.7071 11.3439 48.4191 10.7679C48.1311 10.1599 47.9871 9.53587 47.9871 8.89587C47.9871 8.06387 48.1791 7.40787 48.5631 6.92787C48.9791 6.41587 49.6031 5.98387 50.4351 5.63187C51.3631 5.27987 52.4511 5.02387 53.6991 4.86387C54.9791 4.70387 56.1791 4.62387 57.2991 4.62387ZM88.5925 13.8879C88.5925 12.8959 88.3045 12.1759 87.7285 11.7279C87.1845 11.2479 86.4325 11.0079 85.4725 11.0079C84.8325 11.0079 84.1925 11.0879 83.5525 11.2479C82.9445 11.4079 82.4165 11.6479 81.9685 11.9679V28.6239C81.6485 28.7199 81.1365 28.8159 80.4325 28.9119C79.7605 29.0079 79.0565 29.0559 78.3205 29.0559C77.6165 29.0559 76.9765 29.0079 76.4005 28.9119C75.8565 28.8159 75.3925 28.6239 75.0085 28.3359C74.6245 28.0479 74.3205 27.6639 74.0965 27.1839C73.9045 26.6719 73.8085 26.0159 73.8085 25.2159V10.8159C73.8085 9.95187 73.9845 9.24787 74.3365 8.70387C74.7205 8.15987 75.2325 7.66387 75.8725 7.21587C76.9605 6.44787 78.3205 5.82387 79.9525 5.34387C81.6165 4.86387 83.4565 4.62387 85.4725 4.62387C89.0885 4.62387 91.8725 5.42387 93.8245 7.02387C95.7765 8.59187 96.7525 10.7839 96.7525 13.5999V28.6239C96.4325 28.7199 95.9205 28.8159 95.2165 28.9119C94.5445 29.0079 93.8405 29.0559 93.1045 29.0559C92.4005 29.0559 91.7605 29.0079 91.1845 28.9119C90.6405 28.8159 90.1765 28.6239 89.7925 28.3359C89.4085 28.0479 89.1045 27.6639 88.8805 27.1839C88.6885 26.6719 88.5925 26.0159 88.5925 25.2159V13.8879ZM113.169 4.62387C114.993 4.62387 116.641 4.86387 118.113 5.34387C119.617 5.79187 120.881 6.38387 121.905 7.11987C122.545 7.56787 123.041 8.06387 123.393 8.60787C123.777 9.15187 123.969 9.85587 123.969 10.7199V27.5199C123.969 29.2159 123.649 30.6719 123.009 31.8879C122.369 33.1359 121.489 34.1599 120.369 34.9599C119.281 35.7919 117.985 36.3999 116.481 36.7839C115.009 37.1679 113.425 37.3599 111.729 37.3599C108.817 37.3599 106.529 36.9599 104.865 36.1599C103.201 35.3919 102.369 34.1279 102.369 32.3679C102.369 31.6319 102.513 30.9759 102.801 30.3999C103.121 29.8559 103.473 29.4399 103.857 29.1519C104.785 29.6639 105.825 30.0959 106.977 30.4479C108.161 30.7999 109.377 30.9759 110.625 30.9759C112.353 30.9759 113.729 30.6879 114.753 30.1119C115.777 29.5359 116.289 28.6079 116.289 27.3279V26.5599C114.977 27.1359 113.377 27.4239 111.489 27.4239C110.049 27.4239 108.673 27.2159 107.361 26.7999C106.081 26.3519 104.945 25.6799 103.953 24.7839C102.993 23.8559 102.209 22.6719 101.601 21.2319C101.025 19.7919 100.737 18.0799 100.737 16.0959C100.737 14.1439 101.041 12.4479 101.649 11.0079C102.289 9.56787 103.153 8.38387 104.241 7.45587C105.361 6.49587 106.673 5.79187 108.177 5.34387C109.713 4.86387 111.377 4.62387 113.169 4.62387ZM116.145 11.5839C115.921 11.4559 115.585 11.3279 115.137 11.1999C114.721 11.0719 114.193 11.0079 113.553 11.0079C111.985 11.0079 110.801 11.4559 110.001 12.3519C109.233 13.2159 108.849 14.4639 108.849 16.0959C108.849 17.9519 109.233 19.2959 110.001 20.1279C110.801 20.9279 111.809 21.3279 113.025 21.3279C114.337 21.3279 115.377 21.0239 116.145 20.4159V11.5839ZM129.027 5.67987C129.347 5.58387 129.843 5.48787 130.515 5.39187C131.219 5.29587 131.939 5.24787 132.675 5.24787C133.379 5.24787 134.003 5.29587 134.547 5.39187C135.123 5.48787 135.603 5.67987 135.987 5.96787C136.371 6.25587 136.659 6.65587 136.851 7.16787C137.075 7.64787 137.187 8.28787 137.187 9.08787V19.4079C137.187 20.7199 137.507 21.6639 138.147 22.2399C138.787 22.7839 139.715 23.0559 140.931 23.0559C141.667 23.0559 142.259 22.9919 142.707 22.8639C143.187 22.7359 143.555 22.6079 143.811 22.4799V5.67987C144.131 5.58387 144.627 5.48787 145.299 5.39187C146.003 5.29587 146.723 5.24787 147.459 5.24787C148.163 5.24787 148.787 5.29587 149.331 5.39187C149.907 5.48787 150.387 5.67987 150.771 5.96787C151.155 6.25587 151.443 6.65587 151.635 7.16787C151.859 7.64787 151.971 8.28787 151.971 9.08787V23.6799C151.971 25.2799 151.299 26.4799 149.955 27.2799C148.835 27.9839 147.491 28.5119 145.923 28.8639C144.387 29.2479 142.707 29.4399 140.883 29.4399C139.155 29.4399 137.555 29.2479 136.083 28.8639C134.643 28.4799 133.395 27.8879 132.339 27.0879C131.283 26.2879 130.467 25.2639 129.891 24.0159C129.315 22.7359 129.027 21.1999 129.027 19.4079V5.67987ZM155.525 24.7839C155.525 23.4399 155.941 22.3199 156.773 21.4239C157.605 20.5279 158.741 20.0799 160.181 20.0799C161.621 20.0799 162.757 20.5279 163.589 21.4239C164.421 22.3199 164.837 23.4399 164.837 24.7839C164.837 26.1279 164.421 27.2479 163.589 28.1439C162.757 29.0399 161.621 29.4879 160.181 29.4879C158.741 29.4879 157.605 29.0399 156.773 28.1439C155.941 27.2479 155.525 26.1279 155.525 24.7839Z" fill="black"/>
</svg>
