<svg width="169" height="39" viewBox="0 0 169 39" fill="none" xmlns="http://www.w3.org/2000/svg">
<path d="M26.472 28.6639C26.024 29.1119 25.368 29.4479 24.504 29.6719C23.672 29.9279 22.664 30.0559 21.48 30.0559C20.296 30.0559 19.176 29.8799 18.12 29.5279C17.064 29.1759 16.2 28.3279 15.528 26.9839L10.776 17.2879C10.296 16.2959 9.864 15.3679 9.48 14.5039C9.096 13.6079 8.68 12.5839 8.232 11.4319L7.944 11.4799C8.072 13.2079 8.136 14.9679 8.136 16.7599C8.168 18.5519 8.184 20.3119 8.184 22.0399V29.4799C7.832 29.5759 7.288 29.6719 6.552 29.7679C5.848 29.8639 5.144 29.9119 4.44 29.9119C3.736 29.9119 3.112 29.8639 2.568 29.7679C2.024 29.6719 1.576 29.4799 1.224 29.1919C0.872 28.9039 0.6 28.5199 0.408 28.0399C0.216 27.5279 0.12 26.8719 0.12 26.0719V2.07187C0.568 1.43187 1.256 0.951874 2.184 0.631874C3.112 0.311874 4.104 0.151875 5.16 0.151875C6.344 0.151875 7.464 0.343874 8.52 0.727873C9.608 1.07987 10.472 1.91187 11.112 3.22388L15.912 12.9199C16.392 13.9119 16.824 14.8559 17.208 15.7519C17.592 16.6159 18.008 17.6239 18.456 18.7759L18.696 18.7279C18.568 16.9999 18.488 15.2719 18.456 13.5439C18.424 11.8159 18.408 10.0879 18.408 8.35987V0.583875C18.76 0.487874 19.288 0.391873 19.992 0.295873C20.728 0.199874 21.448 0.151875 22.152 0.151875C23.56 0.151875 24.632 0.407874 25.368 0.919873C26.104 1.39987 26.472 2.42387 26.472 3.99187V28.6639ZM40.2341 21.6559C40.2341 22.4879 40.4901 23.0799 41.0021 23.4319C41.5461 23.7839 42.2981 23.9599 43.2581 23.9599C43.7381 23.9599 44.2341 23.9279 44.7461 23.8639C45.2581 23.7679 45.7061 23.6559 46.0901 23.5279C46.3781 23.8799 46.6181 24.2799 46.8101 24.7279C47.0341 25.1439 47.1461 25.6559 47.1461 26.2639C47.1461 27.4799 46.6821 28.4719 45.7541 29.2399C44.8581 30.0079 43.2581 30.3919 40.9541 30.3919C38.1381 30.3919 35.9621 29.7519 34.4261 28.4719C32.9221 27.1919 32.1701 25.1119 32.1701 22.2319V1.68787C32.5221 1.59187 33.0181 1.49587 33.6581 1.39987C34.3301 1.27187 35.0341 1.20787 35.7701 1.20787C37.1781 1.20787 38.2661 1.46387 39.0341 1.97587C39.8341 2.45587 40.2341 3.49587 40.2341 5.09587V8.16787H46.5221C46.7141 8.51987 46.8901 8.96787 47.0501 9.51187C47.2421 10.0239 47.3381 10.5999 47.3381 11.2399C47.3381 12.3599 47.0821 13.1759 46.5701 13.6879C46.0901 14.1679 45.4341 14.4079 44.6021 14.4079H40.2341V21.6559ZM61.2769 24.4879C61.8209 24.4879 62.4129 24.4399 63.0529 24.3439C63.7249 24.2159 64.2209 24.0559 64.5409 23.8639V20.0239L61.0849 20.3119C60.1889 20.3759 59.4529 20.5679 58.8769 20.8879C58.3009 21.2079 58.0129 21.6879 58.0129 22.3279C58.0129 22.9679 58.2529 23.4959 58.7329 23.9119C59.2449 24.2959 60.0929 24.4879 61.2769 24.4879ZM60.8929 5.62387C62.6209 5.62387 64.1889 5.79987 65.5969 6.15187C67.0369 6.50387 68.2529 7.04787 69.2449 7.78387C70.2689 8.48787 71.0529 9.39987 71.5969 10.5199C72.1409 11.6079 72.4129 12.9039 72.4129 14.4079V25.1599C72.4129 25.9919 72.1729 26.6799 71.6929 27.2239C71.2449 27.7359 70.7009 28.1839 70.0609 28.5679C67.9809 29.8159 65.0529 30.4399 61.2769 30.4399C59.5809 30.4399 58.0449 30.2799 56.6689 29.9599C55.3249 29.6399 54.1569 29.1599 53.1649 28.5199C52.2049 27.8799 51.4529 27.0639 50.9089 26.0719C50.3969 25.0799 50.1409 23.9279 50.1409 22.6159C50.1409 20.4079 50.7969 18.7119 52.1089 17.5279C53.4209 16.3439 55.4529 15.6079 58.2049 15.3199L64.4929 14.6479V14.3119C64.4929 13.3839 64.0769 12.7279 63.2449 12.3439C62.4449 11.9279 61.2769 11.7199 59.7409 11.7199C58.5249 11.7199 57.3409 11.8479 56.1889 12.1039C55.0369 12.3599 53.9969 12.6799 53.0689 13.0639C52.6529 12.7759 52.3009 12.3439 52.0129 11.7679C51.7249 11.1599 51.5809 10.5359 51.5809 9.89587C51.5809 9.06387 51.7729 8.40787 52.1569 7.92787C52.5729 7.41587 53.1969 6.98387 54.0289 6.63187C54.9569 6.27987 56.0449 6.02387 57.2929 5.86387C58.5729 5.70387 59.7729 5.62387 60.8929 5.62387ZM92.1863 14.8879C92.1863 13.8959 91.8983 13.1759 91.3223 12.7279C90.7783 12.2479 90.0263 12.0079 89.0663 12.0079C88.4263 12.0079 87.7863 12.0879 87.1463 12.2479C86.5383 12.4079 86.0103 12.6479 85.5623 12.9679V29.6239C85.2423 29.7199 84.7303 29.8159 84.0263 29.9119C83.3543 30.0079 82.6503 30.0559 81.9143 30.0559C81.2103 30.0559 80.5703 30.0079 79.9943 29.9119C79.4503 29.8159 78.9863 29.6239 78.6023 29.3359C78.2183 29.0479 77.9143 28.6639 77.6903 28.1839C77.4983 27.6719 77.4023 27.0159 77.4023 26.2159V11.8159C77.4023 10.9519 77.5783 10.2479 77.9303 9.70387C78.3143 9.15987 78.8263 8.66387 79.4663 8.21587C80.5543 7.44787 81.9143 6.82387 83.5463 6.34387C85.2103 5.86387 87.0503 5.62387 89.0663 5.62387C92.6823 5.62387 95.4663 6.42387 97.4183 8.02387C99.3703 9.59187 100.346 11.7839 100.346 14.5999V29.6239C100.026 29.7199 99.5143 29.8159 98.8103 29.9119C98.1383 30.0079 97.4343 30.0559 96.6983 30.0559C95.9943 30.0559 95.3543 30.0079 94.7783 29.9119C94.2343 29.8159 93.7703 29.6239 93.3863 29.3359C93.0023 29.0479 92.6983 28.6639 92.4743 28.1839C92.2823 27.6719 92.1863 27.0159 92.1863 26.2159V14.8879ZM116.763 5.62387C118.587 5.62387 120.235 5.86387 121.707 6.34387C123.211 6.79187 124.475 7.38387 125.499 8.11987C126.139 8.56787 126.635 9.06387 126.987 9.60787C127.371 10.1519 127.563 10.8559 127.563 11.7199V28.5199C127.563 30.2159 127.243 31.6719 126.603 32.8879C125.963 34.1359 125.083 35.1599 123.963 35.9599C122.875 36.7919 121.579 37.3999 120.075 37.7839C118.603 38.1679 117.019 38.3599 115.323 38.3599C112.411 38.3599 110.123 37.9599 108.459 37.1599C106.795 36.3919 105.963 35.1279 105.963 33.3679C105.963 32.6319 106.107 31.9759 106.395 31.3999C106.715 30.8559 107.067 30.4399 107.451 30.1519C108.379 30.6639 109.419 31.0959 110.571 31.4479C111.755 31.7999 112.971 31.9759 114.219 31.9759C115.947 31.9759 117.323 31.6879 118.347 31.1119C119.371 30.5359 119.883 29.6079 119.883 28.3279V27.5599C118.571 28.1359 116.971 28.4239 115.083 28.4239C113.643 28.4239 112.267 28.2159 110.955 27.7999C109.675 27.3519 108.539 26.6799 107.547 25.7839C106.587 24.8559 105.803 23.6719 105.195 22.2319C104.619 20.7919 104.331 19.0799 104.331 17.0959C104.331 15.1439 104.635 13.4479 105.243 12.0079C105.883 10.5679 106.747 9.38387 107.835 8.45587C108.955 7.49587 110.267 6.79187 111.771 6.34387C113.307 5.86387 114.971 5.62387 116.763 5.62387ZM119.739 12.5839C119.515 12.4559 119.179 12.3279 118.731 12.1999C118.315 12.0719 117.787 12.0079 117.147 12.0079C115.579 12.0079 114.395 12.4559 113.595 13.3519C112.827 14.2159 112.443 15.4639 112.443 17.0959C112.443 18.9519 112.827 20.2959 113.595 21.1279C114.395 21.9279 115.403 22.3279 116.619 22.3279C117.931 22.3279 118.971 22.0239 119.739 21.4159V12.5839ZM132.621 6.67987C132.941 6.58387 133.437 6.48787 134.109 6.39187C134.813 6.29587 135.533 6.24787 136.269 6.24787C136.973 6.24787 137.597 6.29587 138.141 6.39187C138.717 6.48787 139.197 6.67987 139.581 6.96787C139.965 7.25587 140.253 7.65587 140.445 8.16787C140.669 8.64787 140.781 9.28787 140.781 10.0879V20.4079C140.781 21.7199 141.101 22.6639 141.741 23.2399C142.381 23.7839 143.309 24.0559 144.525 24.0559C145.261 24.0559 145.853 23.9919 146.301 23.8639C146.781 23.7359 147.149 23.6079 147.405 23.4799V6.67987C147.725 6.58387 148.221 6.48787 148.893 6.39187C149.597 6.29587 150.317 6.24787 151.053 6.24787C151.757 6.24787 152.381 6.29587 152.925 6.39187C153.501 6.48787 153.981 6.67987 154.365 6.96787C154.749 7.25587 155.037 7.65587 155.229 8.16787C155.453 8.64787 155.565 9.28787 155.565 10.0879V24.6799C155.565 26.2799 154.893 27.4799 153.549 28.2799C152.429 28.9839 151.085 29.5119 149.517 29.8639C147.981 30.2479 146.301 30.4399 144.477 30.4399C142.749 30.4399 141.149 30.2479 139.677 29.8639C138.237 29.4799 136.989 28.8879 135.933 28.0879C134.877 27.2879 134.061 26.2639 133.485 25.0159C132.909 23.7359 132.621 22.1999 132.621 20.4079V6.67987ZM159.119 25.7839C159.119 24.4399 159.535 23.3199 160.367 22.4239C161.199 21.5279 162.335 21.0799 163.775 21.0799C165.215 21.0799 166.351 21.5279 167.183 22.4239C168.015 23.3199 168.431 24.4399 168.431 25.7839C168.431 27.1279 168.015 28.2479 167.183 29.1439C166.351 30.0399 165.215 30.4879 163.775 30.4879C162.335 30.4879 161.199 30.0399 160.367 29.1439C159.535 28.2479 159.119 27.1279 159.119 25.7839Z" fill="white"/>
</svg>
